<?xml version="1.0" encoding="UTF-8"?>
<svg id="Layer_2" data-name="Layer 2" xmlns="http://www.w3.org/2000/svg" viewBox="0 0 4123.54 1031.3">
  <defs>
    <style>
      .cls-1, .cls-2 {
        fill: #0862b7;
      }

      .cls-2 {
        fill-rule: evenodd;
      }
    </style>
  </defs>
  <g id="Layer_1-2" data-name="Layer 1">
    <g>
      <g>
        <path class="cls-1" d="M175.29,597.45c1.89,1.05,4.22-.23,4.38-2.39.79-10.3,1.93-20.7,3.45-31.17,20.39-140.88,104.06-273.26,221.19-362.46l-.02-.04h0c2.84-2.35,4.66-5.92,4.66-9.94,0-7.04-5.58-12.76-12.46-12.76-1.93,0-3.75.46-5.38,1.27-97.1,43.09-186.72,93.79-266.64,150.37-22.76-37.59-34.1-79.76-31.91-124.82h-.08c0-.11,0-.22.01-.33,0-.17.02-.33,0-.5-.43-5.78-5.35-10.11-10.99-9.67-3.84.3-6.98,2.75-8.49,6.09l-.04-.03c-19.44,39.52-34.97,81.08-45.97,123.78-3.37,13.07-4.24,26.69-2.21,40.03,15.65,103.12,70.02,187.76,150.5,232.58Z"/>
        <path class="cls-2" d="M1172.42,849.68v-.36c-26.44-27.86-71.55-79.93-108.55-168.17,37.22-83.38,52.82-177.25,40.52-274.51-.76-6.03-1.64-12.01-2.6-17.95-.17-1.29-.38-2.64-.65-4.11-.09-.43-.18-.84-.27-1.26l-.1-.47c-2.05-11.82-4.46-23.47-7.27-34.95-5.85-29.16-9.64-51.81-9.64-65.08,0-1.35-.29-2.76-.78-4.23.19-6.51.7-13.11,1.6-19.8,2.85-21.2,9.16-41.89,18.24-61.32,2.43-4.55,5.11-9.3,7.88-14.23,2.48-4.42,5.05-8.97,7.59-13.64.34-.53.71-1.05,1.08-1.57.28-.4.56-.79.83-1.19-.18.26-.35.51-.52.77-.42.63-.86,1.26-1.26,1.9,3.01-4.01,5.89-8.15,8.64-12.38,1.99-2.65,6.14-7.84,6.14-7.84v.02c5.83-9.77,10.65-20.03,14.65-30.7.89-2.38-1.45-4.61-3.79-3.62-81.56,34.55-144.07,111.44-156.35,194.97-3.04,20.63-2.85,40.57.2,59.36h-.54c6.79,41.29,9.11,83.52,6.55,125.77-5.26,86.99-27.95,167.09-70.32,234.19h.18c-8.55,12.87-13.62,28.72-13.62,45.87,0,15.74,6.32,28.34,13.62,40.58,8.49,14.23,13.63,21.74,20.89,29.58,1.12,1.21,3.01,1.24,4.18.09,9.81-9.55,19.21-19.48,28.24-29.71,15.68,18.66,30.25,33.56,36.23,38.53.39.57.76,1.03,1.12,1.44,1.62,2.07,3.88,3.44,6.44,3.76.03.01.05.03.07.04.03.01.05.04.08.05,64.44,11.16,128.38,17.05,141.45,18.19,1.27.44,2.62.68,4.02.68,7.59,0,13.74-6.96,13.74-15.55,0-5.56-2.58-10.42-7.89-13.17ZM1124.69,160.48c.23-.34.46-.68.7-1.01h.04c-.28.37-.54.75-.8,1.12-.16.22-.31.45-.47.67.19-.26.36-.52.54-.79Z"/>
        <path class="cls-1" d="M739.31,971.96c1.35,1.61.67,4.09-1.33,4.75-39.46,12.99-81.06,21.86-124.33,26-118.61,11.34-233.08-14.39-330.29-67.92.29.13.59.25.88.37,59.21,24.61,124.45,40.08,193.51,43.85,79.09,4.32,154.07-7.43,220.82-32.07l.43.03c2.87-.98,6.04-1.47,9.37-1.28,6.1.33,11.48,2.8,15.2,6.47.94.93,1.94,1.82,2.53,2.66,3.95,5.63,8.43,11.38,13.21,17.13Z"/>
        <path class="cls-1" d="M1160.66,67.12l-.03.21-.35,1.99-.35,1.9c-.31,1.88-.66,3.74-1.01,5.6,0,0-2.17,8.97-4.4,16.9-.54,1.9-2.24,3.19-4.21,3.28-59.02,2.86-175.68,80.9-193.87,208.59-3.42,21.26-3.21,41.81.22,61.17h-.6c7.66,42.55,10.27,86.07,7.39,129.6-5.94,89.64-34.25,171.93-79.32,241.33h.21c-9.65,13.26-15.36,29.6-15.36,47.27,0,16.21,4.81,31.29,13.04,43.91,8.82,18.14,17.99,34.76,27.28,50.02l.72,1.02c36.59,60.1,74.27,97.65,100.19,120.62v.38c4.62,2.91,7.7,8.06,7.7,13.94,0,9.08-7.33,16.44-16.38,16.44-1.67,0-3.28-.25-4.8-.72-15.58-1.21-91.84-7.43-168.7-19.24h-.02s-.01-.02-.01-.02c-3.31-.33-6.22-1.99-8.21-4.45-.31-.33-.62-.71-.94-1.14-7.75-5.71-27.54-23.72-48.01-45.84l-.27.1c-13.01-14.08-20.93-23.04-31.44-38.89-.75-1.15-5.31-6.98-6.33-8.05-3.94-4.14-12.27-7.92-18.42-7.92-4.98,0-11.61,1.12-14.44,2.49-65.62,33.82-135.57,50.16-215.18,50.23-119.76.1-230.1-41.99-318.85-111.43-77.5-73.62-133.37-169.64-155.6-279.58-11.91-58.94-13.26-117.52-5.31-173.91.5-3.56,5.98-3.18,6.29.4,13.26,152.73,126.16,268.47,289.48,272.21,202.02,4.63,381.7-154.25,434.35-382,.1-.42.19-.84.28-1.26.07-.32.13-.63.21-.95h.39c16.57-77.96,37.11-153.03,97.48-215.45h.69C866.95,29.47,925.79,4.87,979.98.59c20.57-1.62,39.95.14,57.52,4.73v-.08c26.94,6.76,60.36,10.37,96.41,9.36,5.26-.15,10.42-.4,15.49-.73v.11c6.82.23,12.28,5.83,12.28,12.72v.04s.13,0,.13,0c1,12.73.8,25.93-1.06,39.74h0c-.03.2-.07.42-.1.64Z"/>
      </g>
      <g>
        <path class="cls-1" d="M1643.71,202.23h143.05c28.83,0,64.69,1.37,107.56,4.1,48.05,1.99,82.3,14.54,102.76,37.65,20.7,23.11,31.05,60.38,31.05,111.82,0,46.72-7.64,81.63-22.92,104.74-15.28,22.86-41.4,38.27-78.36,46.22-38.93,8.7-113.11,13.05-222.52,13.05-86.74,0-145.88-1.62-177.42-4.85-31.54-3.23-58.4-10.44-80.58-21.62-31.3-16.4-46.94-54.67-46.94-114.81,0-6.49,5.71-11.46,12.15-11.46h124.7c8.04,0,13.94,6.51,16.04,14.33.99,3.69,2.27,4.72,3.84,8.31,2.96,5.96,8.99,10.69,18.11,14.16,11.58,4.97,45.83,7.45,102.76,7.45,47.56,0,83.04-.37,106.45-1.12,23.41-.75,42.75-2.98,58.03-6.71,15.52-3.73,25.14-8.32,28.83-13.79,3.94-5.72,5.91-14.29,5.91-25.72,0-21.87-8.63-35.53-25.87-41-9.12-2.98-17.99-4.72-26.61-5.22-8.38-.75-31.54-1.12-69.49-1.12h-139.35c-46.33,0-81.32-1.49-104.98-4.47-23.41-2.98-43.12-8.82-59.14-17.52-35.24-18.39-52.86-61.38-52.86-128.97,0-45.72,7.27-79.64,21.81-101.76,14.54-22.36,40.04-37.77,76.51-46.22,38.94-9.69,108.8-14.54,209.58-14.54,87.73,0,147.73,1.74,180.01,5.22,32.53,3.48,57.29,11.18,74.29,23.11,17.74,11.68,29.94,27.09,36.6,46.22,5.82,15.93,9.18,30.87,10.09,56.2.3,8.43-6.53,15.28-14.89,15.28h-118.4c-8.75,0-14.82-8.23-19.61-15.61-3.37-5.2-9.04-8.81-16.5-11.88-13.06-5.72-44.6-8.57-94.63-8.57-60.62,0-106.95.99-138.98,2.98-20.7,1.49-34.99,5.47-42.88,11.93-7.89,6.21-11.83,16.53-11.83,30.94,0,20.87,10.84,34.04,32.53,39.51,10.1,2.48,30.8,3.73,62.1,3.73Z"/>
        <path class="cls-1" d="M2173.02,516.08c-29.29,0-53.03-23.94-53.03-53.47V60.38c0-29.53,23.74-53.47,53.03-53.47h496.62c8.37,0,15.15,6.84,15.15,15.28v84.62c0,8.44-6.78,15.28-15.15,15.28h-398.1v87.97h398.1c8.37,0,15.15,6.84,15.15,15.28v70.08c0,8.44-6.78,15.28-15.15,15.28h-398.1v90.2h398.1c8.37,0,15.15,6.84,15.15,15.28v84.62c0,8.44-6.78,15.28-15.15,15.28h-496.62Z"/>
        <path class="cls-1" d="M2797.97,516.08c-11.59,0-18.89-12.58-13.21-22.77L3047.26,22.49c5.37-9.62,15.46-15.58,26.42-15.58h170.21c11.07,0,21.26,6.09,26.58,15.88l255.58,470.67c5.53,10.18-1.78,22.62-13.29,22.62h-133.68c-5.51,0-10.59-3.02-13.26-7.88l-45.58-83.07h-325.65l-44.14,82.9c-2.64,4.96-7.77,8.05-13.35,8.05h-139.14ZM3050.03,319.27h216.61l-109.04-203.15-107.57,203.15Z"/>
        <path class="cls-1" d="M3667.77,516.08c-25.1,0-45.45-20.52-45.45-45.83V22.19c0-8.44,6.78-15.28,15.15-15.28h123.47c8.37,0,15.15,6.84,15.15,15.28v367.9h332.31c8.37,0,15.15,6.84,15.15,15.28v95.43c0,8.44-6.78,15.28-15.15,15.28h-440.62Z"/>
      </g>
      <g>
        <path class="cls-1" d="M1684.73,819.13h-30.15c-.25-19.49-4.33-32.58-12.25-39.26-11.31-9.54-41.59-14.31-90.83-14.31-35.05,0-60.81,1.43-77.27,4.29-16.33,2.73-27.77,7.7-34.3,14.93-6.41,7.22-9.61,18.68-9.61,34.35,0,18.4,5.28,30.26,15.83,35.58,6.66,3.41,15.39,5.52,26.2,6.34,10.8.82,34.74,1.36,71.8,1.64,41.21.27,68.79,1.16,82.73,2.66,14.07,1.36,25.88,4.36,35.43,9,10.3,5.59,17.78,13.43,22.43,23.51,4.65,10.09,6.97,23.79,6.97,41.1,0,37.35-12.5,61.21-37.5,71.57-18.22,7.23-54.09,10.84-107.61,10.84s-93.6-3.48-112.69-10.43c-23.87-9.27-35.87-29.38-35.99-60.32v-19.22h30.91v7.57c0,13.9,1.57,24.26,4.71,31.08,3.27,6.68,9.05,11.38,17.34,14.11,14.7,5.32,44.66,7.97,89.89,7.97,34.68,0,60.05-1.36,76.14-4.09,16.08-2.86,27.2-7.97,33.36-15.34,6.28-7.5,9.42-19.29,9.42-35.37,0-11.72-1.82-20.52-5.47-26.38-3.64-5.86-9.8-10.22-18.47-13.09-8.54-2.45-18.47-3.88-29.78-4.29-11.31-.41-45.92-.89-103.84-1.43-23.37-.27-41.02-1.5-52.96-3.68-11.81-2.32-21.67-6.27-29.59-11.86-7.66-5.59-13.19-12.61-16.58-21.06-3.39-8.59-5.09-19.77-5.09-33.53,0-41.03,14.82-66.11,44.47-75.25,21.11-6.95,57.35-10.43,108.74-10.43,55.53,0,91.46,5.59,107.79,16.77,9.55,6.41,16.08,14.18,19.6,23.31,3.64,9,5.72,23.24,6.22,42.73Z"/>
        <path class="cls-1" d="M1787.5,1018.49v-279.31h256.3v28.01h-225.39v93.44h217.29v26.38h-217.29v103.46h227.46v28.01h-258.37Z"/>
        <path class="cls-1" d="M2436.59,924.64v11.86c0,16.77-1.01,29.51-3.02,38.24-1.89,8.72-5.27,16.22-10.18,22.49-9.3,12-24.63,19.08-45.99,21.27-17.21,1.91-48.3,2.86-93.28,2.86s-78.34-1.57-95.17-4.7c-16.83-3.27-30.03-10.22-39.58-20.86-8.29-9.27-13.76-21.47-16.4-36.6-2.63-15.13-3.95-41.85-3.95-80.15,0-43.21,2.01-73,6.03-89.35,4.15-16.36,12.63-29.04,25.44-38.03,9.8-6.41,23.68-10.56,41.65-12.47,18.09-1.91,53.27-2.86,105.53-2.86,31.66,0,54.65,1.09,68.98,3.27,14.45,2.18,25.63,6.34,33.54,12.47,8.8,6.68,14.82,15.27,18.09,25.76,3.39,10.5,5.34,26.92,5.84,49.28h-29.97v-7.16c0-9-.44-16.08-1.32-21.27-.75-5.32-2.76-10.22-6.03-14.72-3.14-4.5-6.98-7.77-11.49-9.81-4.4-2.04-11.56-3.82-21.48-5.32-9.93-1.64-20.61-2.59-32.04-2.86-11.43-.27-26.95-.41-46.55-.41h-33.92c-7.29,0-16.08.41-26.38,1.23-10.18.82-17.27,1.36-21.29,1.64-4.02.27-9.11,1.91-15.27,4.91-6.16,2.86-10.11,5.04-11.87,6.54-1.63,1.36-4.02,4.91-7.16,10.63-3.02,5.72-4.71,10.43-5.09,14.11-.38,3.54-1.07,10.09-2.07,19.63-.88,9.41-1.32,17.45-1.32,24.13v30.67c0,31.76.88,54.25,2.64,67.48,1.89,13.09,5.53,22.56,10.93,28.42,6.16,6.95,16.02,11.59,29.59,13.9,13.69,2.18,38.57,3.27,74.63,3.27,21.1,0,37.75-.14,49.94-.41,12.31-.27,23.81-1.09,34.49-2.45,10.68-1.5,18.34-3.2,22.99-5.11,4.77-1.91,8.98-5.04,12.63-9.41,3.64-4.36,5.84-9,6.59-13.9.75-5.04,1.13-11.79,1.13-20.24v-15.95h30.15Z"/>
        <path class="cls-1" d="M2833.91,739.18v189.75c0,25.35-1.32,41.78-3.95,49.28-5.66,17.58-18.09,29.17-37.32,34.76-19.1,5.59-55.91,8.38-110.43,8.38-44.22,0-75.76-1.5-94.61-4.5-18.72-3.14-32.35-9.13-40.89-17.99-8.8-9.27-13.95-21.74-15.45-37.42-.51-4.5-.75-15.34-.75-32.51v-189.75h30.9v183.82c0,18.95.51,30.67,1.51,35.17,2.26,10.36,6.66,17.79,13.19,22.29,6.66,4.36,17.59,7.43,32.79,9.2,15.2,1.64,39.63,2.45,73.31,2.45,40.95,0,68.72-1.16,83.3-3.48,14.69-2.45,24.62-7.57,29.77-15.34,3.39-5.04,5.53-10.29,6.41-15.74.88-5.45,1.32-16.97,1.32-34.56v-183.82h30.9Z"/>
        <path class="cls-1" d="M2937.61,1018.49v-279.31h212.39c19.6,0,34.55,1.64,44.85,4.91,10.43,3.14,19.04,8.59,25.82,16.36,10.56,12.81,15.83,34.21,15.83,64.2s-6.85,50.78-20.54,59.5c-7.92,4.77-20.42,7.97-37.5,9.61,14.7,1.91,25.38,4.7,32.03,8.38,13.95,8.04,20.92,22.7,20.92,43.96v72.38h-30.91v-53.16c0-24.26-3.33-40.08-9.99-47.44-4.4-4.77-9.74-7.97-16.02-9.61-6.28-1.64-16.02-2.45-29.21-2.45h-176.77v112.66h-30.91ZM2968.52,879.45h169.42c26.51,0,44.22-3.75,53.14-11.25,8.92-7.63,13.38-22.7,13.38-45.19s-4.59-36.87-13.76-44.37c-9.17-7.63-27.39-11.45-54.65-11.45h-167.53v112.26Z"/>
        <path class="cls-1" d="M3334.56,1018.49v-279.31h30.9v279.31h-30.9Z"/>
        <path class="cls-1" d="M3575.84,1018.49v-251.3h-130.79v-28.01h292.11v28.01h-130.41v251.3h-30.91Z"/>
        <path class="cls-1" d="M3943.38,1018.49v-117.16l-149.44-162.15h42.4l122.5,134.34,122.3-134.34h42.4l-149.44,162.15v117.16h-30.72Z"/>
      </g>
    </g>
  </g>
</svg>