<svg width="135" height="27" viewBox="0 0 135 27" fill="none" xmlns="http://www.w3.org/2000/svg">
<path d="M34.9435 14.227C33.911 13.3311 31.7629 13.4001 29.8645 12.1768C29.1318 11.7116 28.8154 10.8846 28.8154 10.4022C28.8154 9.86812 29.2484 8.33475 31.3799 8.33475C33.1284 8.33475 33.7112 9.35126 33.961 10.2644H35.9926C35.6928 8.57596 34.9768 6.71524 31.4964 6.59464C29.8978 6.52572 26.9004 7.02536 26.9004 10.764C26.9004 13.1072 29.1318 14.1926 30.464 14.5027C30.464 14.5027 32.6788 15.0196 33.5613 15.7087C34.2274 16.2428 34.2108 16.9664 34.2108 17.4144C34.2108 18.1897 33.6945 18.8961 32.9452 19.1717C32.5455 19.3268 32.0293 19.3957 31.3965 19.3957C30.3308 19.3957 29.698 19.0684 29.265 18.4998C29.1152 18.2931 28.9153 17.7417 28.8487 17.1559H26.9004C26.967 18.2414 27.2001 19.2579 27.9828 19.9126C28.932 20.7223 30.1309 21.2564 31.7962 21.1875C33.7445 21.1186 36.209 20.0504 36.209 17.0698C36.209 15.8638 35.6928 14.8817 34.9435 14.227Z" fill="white"/>
<path fill-rule="evenodd" clip-rule="evenodd" d="M107.83 6.00098H104.6V20.9557H107.83V6.00098ZM102.585 6.79406H93.8428V20.9563H97.0733V15.2879H101.286V12.5485H97.0733V9.55069H102.585V6.79406ZM120.887 9.65416V20.9563H117.639V19.1645C117.306 19.7848 116.84 20.2672 116.241 20.6118C115.625 20.9563 114.942 21.1286 114.159 21.1286C113.227 21.1286 112.394 20.8874 111.661 20.4222C110.945 19.9571 110.379 19.2851 109.979 18.4237C109.58 17.5622 109.38 16.5457 109.38 15.4086C109.38 14.2715 109.58 13.2378 109.979 12.3591C110.379 11.4632 110.945 10.774 111.678 10.2916C112.394 9.79198 113.227 9.55078 114.142 9.55078C114.925 9.55078 115.625 9.72307 116.224 10.0676C116.84 10.4122 117.306 10.8946 117.623 11.5149V9.65416H120.887ZM117.007 17.3899C117.406 16.9075 117.606 16.2356 117.606 15.3569C117.606 14.461 117.406 13.7719 117.007 13.2895C116.607 12.807 116.024 12.5658 115.275 12.5658C114.542 12.5658 113.976 12.807 113.56 13.3067C113.143 13.8063 112.943 14.4955 112.943 15.3742C112.943 16.2528 113.143 16.9248 113.56 17.3899C113.976 17.8551 114.542 18.0963 115.291 18.0963C116.024 18.1136 116.59 17.8724 117.007 17.3899ZM133.525 23.7647C133.925 23.041 134.125 21.5938 134.125 20.8185H134.141V9.65402H130.777V10.9979C130.769 10.9865 130.758 10.9734 130.747 10.9588C130.486 10.6191 129.584 9.44727 127.38 9.44727C125.432 9.44727 124.167 10.6533 123.767 11.1702C122.718 12.5485 122.718 14.6849 122.718 15.4602C122.718 16.2355 122.818 16.9764 123.018 17.6655C123.217 18.3547 123.517 18.9577 123.9 19.4746C124.283 19.9915 124.766 20.405 125.316 20.6979C125.865 20.9908 126.881 21.1631 127.58 21.1458C129.401 21.1142 130.294 20.0494 130.685 19.5829C130.72 19.5418 130.751 19.5053 130.777 19.4746C130.777 19.4746 130.877 21.1975 130.578 22.2313C130.478 22.5414 129.862 23.4545 128.513 23.5062C127.114 23.5579 126.548 22.7654 126.281 22.1451L123.101 22.1107C123.101 23.5062 123.8 24.6261 124.849 25.4014C126.248 26.4352 128.263 26.5558 129.912 26.3662C131.494 26.1767 132.693 25.2291 133.525 23.7647ZM129.828 13.0481C130.378 13.5822 130.744 14.4092 130.761 15.1673C130.761 15.8393 130.594 16.5284 130.295 17.0453C129.579 18.1824 128.047 18.2686 127.047 17.476C126.531 17.0625 126.165 16.4078 126.065 15.7359C125.948 14.9433 126.098 14.0647 126.581 13.4616C126.848 13.1171 127.181 12.8586 127.58 12.7036C128.33 12.3934 129.345 12.6002 129.828 13.0481Z" fill="url(#paint0_linear_117_388)"/>
<path d="M47.5163 11.7901C48.0491 12.5826 48.249 13.289 48.3489 14.2538C48.4155 14.8741 48.3489 15.5288 48.3489 16.149H39.8395C39.8728 17.2172 40.8054 19.4914 43.2366 19.4914C45.6179 19.4914 46.0009 17.8891 46.1508 17.579H48.1657C48.0991 18.2165 47.0333 21.1454 43.1866 21.1454C41.8378 21.1454 38.0244 20.4734 38.0244 15.4943C38.0244 13.6508 38.5073 12.2036 39.4066 11.2043C40.2891 10.205 41.5214 9.60202 42.8203 9.56757C45.6845 9.48142 46.8335 10.7736 47.5163 11.7901ZM40.9053 12.2036C40.1892 12.9444 40.0393 13.7025 39.9061 14.5295C39.9061 14.5467 39.9061 14.5639 39.8895 14.5984H46.5837C46.5338 13.737 46.0342 12.7377 45.4181 12.1519C44.752 11.4972 43.7528 11.1871 42.8369 11.2732C42.1375 11.3249 41.4215 11.6523 40.9053 12.2036Z" fill="white"/>
<path d="M64.1353 9.81215V16.4625C64.1353 17.0655 64.3185 17.5996 64.4684 17.9097C64.7181 18.685 65.684 19.4947 66.833 19.4947C67.7322 19.4947 68.8979 19.2708 69.4974 18.3404C69.8471 17.8063 69.9969 17.3411 69.9969 15.8422V9.81215H71.9952V20.9936H70.0802V19.1846C70.0802 19.1846 70.0136 19.4947 69.6805 19.9082C68.7314 21.0798 67.1161 21.3038 65.7339 21.0626C65.684 21.0453 65.634 21.0453 65.5841 21.0281C64.9013 20.8903 64.2186 20.5802 63.6857 20.0977C63.1695 19.6498 62.7865 18.9951 62.5866 18.3232C62.4867 17.9614 62.4201 17.5996 62.3868 17.2205C62.3535 16.9621 62.3535 16.7037 62.3535 16.4452V9.79492H64.1353V9.81215Z" fill="white"/>
<path d="M80.1384 9.58443V11.6002C79.2059 11.4968 78.1901 11.5313 77.4907 12.2894C77.1243 12.6856 76.8413 13.237 76.758 13.7883C76.6747 14.3741 76.6747 14.9943 76.6747 15.5801V20.9555H74.7764V9.77395H76.7913V11.4107C77.1244 10.8249 77.6073 10.3253 78.1734 9.98069C78.7896 9.65334 79.4723 9.54997 80.1384 9.58443Z" fill="white"/>
<path d="M55.2258 19.4744C52.7946 19.4744 51.9286 17.2002 51.8287 16.132C51.7954 15.6496 51.6622 13.5993 52.8945 12.1866C53.394 11.618 54.1267 11.3251 54.8428 11.2562C55.7587 11.1701 56.7578 11.4802 57.4239 12.1349C57.8069 12.4967 58.1399 13.0308 58.3564 13.5821H60.1882C60.055 12.8585 59.8052 12.1521 59.3722 11.5663C59.2223 11.3596 59.0392 11.1701 58.856 10.9805C58.5396 10.6704 58.1899 10.4292 57.8069 10.2225C56.891 9.72284 55.8419 9.51609 54.8261 9.55055C53.5273 9.61946 52.295 10.188 51.4124 11.1873C50.5132 12.2038 50.0303 13.651 50.0303 15.4773C50.0303 20.4564 53.8437 21.1284 55.1925 21.1284C59.0392 21.1284 60.1382 18.0099 60.2048 17.3897H58.1899C58.0067 17.786 57.6071 19.4744 55.2258 19.4744Z" fill="white"/>
<path d="M91.0113 11.7901C91.5442 12.5826 91.744 13.289 91.8439 14.2538C91.9105 14.8741 91.8439 15.5288 91.8439 16.149H83.3346C83.3679 17.2172 84.3005 19.4914 86.7317 19.4914C89.113 19.4914 89.496 17.8891 89.6458 17.579H91.6608C91.5941 18.2165 90.5284 21.1454 86.6817 21.1454C85.3329 21.1454 81.5195 20.4734 81.5195 15.4943C81.5195 13.6508 82.0024 12.2036 82.9017 11.2043C83.7842 10.205 85.0165 9.60202 86.3154 9.56757C89.1796 9.48142 90.3286 10.7736 91.0113 11.7901ZM84.4004 12.2036C83.6843 12.9444 83.5345 13.7025 83.4012 14.5295C83.4012 14.5467 83.4012 14.5639 83.3846 14.5984H90.0788C90.0288 13.737 89.5293 12.7377 88.9131 12.1519C88.247 11.4972 87.2479 11.1871 86.332 11.2732C85.6326 11.3249 84.9166 11.6523 84.4004 12.2036Z" fill="white"/>
<path d="M10.9023 0V4.46858L14.541 2.14029L10.9023 0Z" fill="url(#paint1_linear_117_388)"/>
<path d="M18.1519 12.9625L14.5408 10.8948V6.45996L10.9021 8.68451L7.23593 6.45996L7.27728 10.852L3.70756 13.0053L0 10.7807V19.4936L10.8884 25.9961L21.7078 19.4936V10.795L18.1519 12.9625ZM10.9021 17.2975L7.23593 15.1871V19.1656L3.77647 17.2548L7.23593 15.1871L10.9021 13.0481C10.9021 13.0481 14.2927 15.2013 14.3754 15.1871C14.4581 15.1728 10.9021 17.2975 10.9021 17.2975ZM14.3754 19.1656V15.1871L17.8349 17.2548L14.3754 19.1656Z" fill="url(#paint2_linear_117_388)"/>
<defs>
<linearGradient id="paint0_linear_117_388" x1="73.496" y1="3.62849" x2="121.425" y2="47.4147" gradientUnits="userSpaceOnUse">
<stop stop-color="#005AEC"/>
<stop offset="1" stop-color="#12DFE7"/>
</linearGradient>
<linearGradient id="paint1_linear_117_388" x1="7.93664" y1="0.698154" x2="25.2178" y2="8.83517" gradientUnits="userSpaceOnUse">
<stop stop-color="#005AEC"/>
<stop offset="1" stop-color="#12DFE7"/>
</linearGradient>
<linearGradient id="paint2_linear_117_388" x1="2.91228" y1="11.2102" x2="20.1046" y2="19.4197" gradientUnits="userSpaceOnUse">
<stop stop-color="#005AEC"/>
<stop offset="1" stop-color="#12DFE7"/>
</linearGradient>
</defs>
</svg>
