<svg width="152" height="35" viewBox="0 0 152 35" fill="none" xmlns="http://www.w3.org/2000/svg">
<path d="M16.4684 17.7778C20.6712 17.6871 24.6695 16.0506 27.6081 13.2186C30.5467 10.3865 32.1922 6.58369 32.1926 2.62346H8.04805L0 17.7867H15.6461V17.7974C11.4573 17.907 7.4791 19.5515 4.55728 22.3811C1.63545 25.2107 0.000491715 29.0024 0 32.9499H24.1446L32.1926 17.7867H16.4684V17.7778Z" fill="url(#paint0_linear_34_3602)"/>
<g clip-path="url(#clip0_34_3602)">
<path d="M42.3741 26.7909V22.2106L51.4597 13.5257V13.4531H42.9276V8.6899H58.8073V13.2703L49.7217 21.9551V22.0278H59.1755V26.7934H42.3741V26.7909ZM67.2793 19.2781V19.3507C67.5248 20.3524 68.0056 21.1087 68.7193 21.6221C69.433 22.1104 70.307 22.3558 71.3413 22.3558C72.1302 22.3558 72.8188 22.2582 73.4099 22.0628C74.0009 21.8675 74.4692 21.5244 74.8123 21.0361H80.5371C79.9461 22.9168 78.8392 24.4319 77.2139 25.5814C75.5886 26.7058 73.6302 27.2667 71.3413 27.2667C69.8888 27.2667 68.559 27.0338 67.352 26.5706C66.1699 26.0822 65.1357 25.4211 64.2491 24.5922C63.3877 23.7357 62.7115 22.724 62.2182 21.5494C61.7499 20.3774 61.517 19.1053 61.517 17.7379C61.517 16.3706 61.7499 15.0984 62.2182 13.9264C62.7115 12.7544 63.3877 11.7526 64.2491 10.9212C65.1357 10.0648 66.1699 9.40613 67.352 8.94283C68.559 8.45449 69.8888 8.20907 71.3413 8.20907C72.7938 8.20907 74.0735 8.45449 75.2555 8.94283C76.4626 9.40613 77.4969 10.0673 78.3583 10.9212C79.2198 11.7526 79.886 12.7544 80.3518 13.9264C80.8201 15.0984 81.053 16.3706 81.053 17.7379V19.2781H67.2768H67.2793ZM71.3413 13.12C70.3822 13.12 69.5557 13.3404 68.8671 13.7786C68.1784 14.2194 67.685 14.8655 67.3895 15.722V15.7946H75.3657V15.722C75.0452 14.8655 74.5293 14.2194 73.8156 13.7786C73.1269 13.3379 72.3005 13.12 71.3413 13.12ZM96.4168 26.7909V17.4098C96.4168 15.9674 96.0963 14.9306 95.4577 14.2945C94.8166 13.6584 93.9801 13.3429 92.9459 13.3429C91.9116 13.3429 91.0751 13.6609 90.434 14.2945C89.7955 14.9306 89.4749 15.9674 89.4749 17.4098V26.7909H83.9354V17.4098C83.9354 15.8947 84.1458 14.5625 84.564 13.4155C85.0072 12.266 85.6233 11.3144 86.4096 10.5556C87.1985 9.77426 88.1451 9.18825 89.2545 8.79758C90.3639 8.40691 91.5935 8.21158 92.9484 8.21158C94.3032 8.21158 95.5328 8.40691 96.6422 8.79758C97.7491 9.16321 98.6982 9.7392 99.4871 10.5205C100.276 11.2768 100.879 12.231 101.298 13.3804C101.741 14.5299 101.961 15.8722 101.961 17.4124V26.7934H96.4218L96.4168 26.7909ZM108.933 7.03706C107.924 7.03706 107.075 6.7065 106.384 6.04787C105.72 5.3642 105.387 4.52025 105.387 3.51853C105.387 2.51681 105.72 1.68539 106.384 1.02676C107.073 0.343088 107.924 0 108.933 0C109.942 0 110.779 0.343088 111.445 1.02676C112.134 1.68539 112.479 2.51681 112.479 3.51853C112.479 4.52025 112.134 5.3642 111.445 6.04787C110.781 6.7065 109.942 7.03706 108.933 7.03706ZM106.164 26.7909V8.68489H111.703V26.7884H106.164V26.7909ZM131.214 19.6437C131.214 20.9384 131.029 22.0628 130.661 23.0145C130.292 23.9686 129.761 24.7625 129.073 25.396C128.407 26.0321 127.608 26.4954 126.674 26.7884C125.737 27.1065 124.703 27.2642 123.571 27.2642C122.439 27.2642 121.405 27.1065 120.468 26.7884C119.531 26.4954 118.72 26.0321 118.031 25.396C117.365 24.7599 116.849 23.9661 116.481 23.0145C116.113 22.0628 115.928 20.9384 115.928 19.6437V2.8574H121.467V8.68489H130.11V13.6334H121.467V19.6437C121.467 20.5953 121.665 21.2564 122.058 21.6221C122.451 21.9652 122.957 22.1354 123.571 22.1354C124.184 22.1354 124.693 21.9652 125.086 21.6221C125.479 21.2564 125.677 20.5953 125.677 19.6437V19.0927H131.216V19.6437H131.214ZM142.896 21.8424C143.906 21.8424 144.73 21.5119 145.371 20.8533C146.037 20.1946 146.367 19.1679 146.367 17.7755V8.68739H151.907V26.1699C151.907 27.7576 151.662 29.1024 151.168 30.2018C150.7 31.3262 150.059 32.2428 149.247 32.9515C148.433 33.6602 147.474 34.1736 146.367 34.4916C145.283 34.8347 144.114 35.005 142.859 35.005C141.777 35.005 140.743 34.8698 139.756 34.6018C138.797 34.3589 137.923 33.9657 137.134 33.4298C136.37 32.9164 135.719 32.2578 135.178 31.4514C134.637 30.645 134.254 29.6809 134.034 28.5565H139.573C139.844 29.1675 140.239 29.5957 140.755 29.8387C141.271 30.1066 141.972 30.2418 142.859 30.2418C144.091 30.2418 144.978 29.9363 145.518 29.3253C146.084 28.7393 146.37 27.7501 146.37 26.3577V24.6723H146.295C145.801 25.381 145.175 25.942 144.412 26.3577C143.648 26.7734 142.786 26.9813 141.827 26.9813C140.868 26.9813 139.906 26.811 138.947 26.4679C138.011 26.1248 137.162 25.5889 136.398 24.8551C135.659 24.1214 135.056 23.1822 134.587 22.0328C134.119 20.8608 133.886 19.4433 133.886 17.7805V8.6924H139.426V17.7805C139.426 19.223 139.746 20.2597 140.385 20.8958C141.026 21.5319 141.862 21.8475 142.896 21.8475V21.8424Z" fill="#1B0C4C"/>
</g>
<defs>
<linearGradient id="paint0_linear_34_3602" x1="27.8027" y1="6.61377" x2="4.51902" y2="29.8231" gradientUnits="userSpaceOnUse">
<stop offset="0.150166" stop-color="#6E32E0"/>
<stop offset="1" stop-color="#84E4DB"/>
</linearGradient>
<clipPath id="clip0_34_3602">
<rect width="109.533" height="35" fill="white" transform="translate(42.3741)"/>
</clipPath>
</defs>
</svg>
