<svg width="1232" height="1234" viewBox="0 0 1232 1234" fill="none" xmlns="http://www.w3.org/2000/svg">
<g opacity="0.1">
<path d="M1024.86 390.851L1027.24 386.107L1022.49 383.734C1008.26 374.245 991.651 367.128 975.045 362.383C958.438 364.756 941.832 371.873 925.226 378.99C920.481 369.5 913.364 362.383 906.247 355.266C899.13 348.149 892.013 341.032 882.523 336.288C889.641 322.054 896.757 305.447 899.13 288.841C894.385 272.235 887.268 255.628 877.779 241.394C875.406 239.022 873.034 236.649 868.289 239.022H865.917V243.766V246.139C875.406 258 882.523 274.607 884.896 288.841C882.523 300.703 877.779 314.937 873.034 326.798C870.662 322.054 868.289 319.681 865.917 314.937C856.428 305.447 839.821 305.447 827.96 314.937C825.587 317.309 820.843 322.054 820.843 326.798C813.726 329.171 808.981 331.543 804.236 336.288C787.63 355.266 785.258 381.362 797.119 402.713C780.513 397.968 766.279 397.968 749.673 402.713L723.577 364.756C725.949 355.266 728.321 331.543 728.321 317.309H725.949C725.949 314.937 725.949 310.192 725.949 307.82C725.949 307.82 725.949 305.447 725.949 303.075C725.949 303.075 723.577 303.075 723.577 305.447C721.204 310.192 721.205 312.564 721.205 317.309C716.46 333.915 714.087 352.894 714.087 369.5C714.087 369.5 721.204 390.851 728.321 402.713L714.087 395.596C709.343 393.224 706.97 393.224 702.226 390.851L699.853 386.107C692.736 362.383 687.992 345.777 683.247 333.915H680.875C680.875 331.543 678.502 329.171 676.13 326.798C676.13 322.054 673.758 322.054 673.758 322.054C673.758 322.054 673.758 322.054 671.385 322.054C671.385 324.426 671.385 324.426 671.385 326.798C671.385 331.543 671.385 333.915 671.385 338.66C676.13 360.011 680.875 378.99 685.619 400.341V402.713L692.736 407.458L671.385 402.713C661.896 390.851 650.034 378.99 638.173 367.128L635.8 369.5C633.428 367.128 631.056 364.756 628.683 364.756C626.311 360.011 626.311 360.011 626.311 360.011C626.311 360.011 623.939 360.011 626.311 364.756C628.683 367.128 628.683 371.873 631.056 374.245C638.173 383.734 650.034 397.968 661.896 412.203C661.896 412.203 697.481 428.809 709.343 435.926C709.343 435.926 709.343 438.298 706.97 440.671C659.524 431.181 583.609 416.947 505.322 407.458C374.843 390.851 234.875 393.224 208.779 405.085H206.407L204.035 407.458C204.035 409.83 204.035 412.202 204.035 414.575C218.269 440.671 336.886 504.724 367.726 511.841C443.641 533.192 476.854 528.447 486.343 526.075C500.577 523.702 512.439 518.958 524.3 509.468C538.534 497.607 557.513 490.49 576.492 490.49C588.353 490.49 652.407 483.373 704.598 478.628C706.97 488.117 711.715 497.607 716.46 504.724C671.385 481 619.194 528.447 545.651 601.99C476.854 670.787 415.173 808.383 396.194 848.713L391.449 862.947L405.683 858.202C446.013 841.596 583.609 777.543 652.407 708.745C725.949 635.202 771.024 583.011 749.673 537.936C759.162 542.681 766.279 547.426 775.768 549.798C771.023 585.383 763.907 663.67 763.907 677.904C761.534 696.883 756.79 715.862 744.928 730.096C735.438 741.958 730.694 753.819 728.321 768.053C725.949 808.383 730.694 848.713 742.555 886.67C756.789 927 775.768 964.957 799.492 1000.54C808.981 1014.78 818.47 1029.01 827.96 1040.87C827.96 1040.87 827.96 1040.87 827.96 1043.24C830.332 1045.62 832.704 1047.99 837.449 1050.36C839.821 1050.36 839.821 1052.73 842.194 1052.73H844.566H846.938C846.938 1052.73 846.938 1050.36 849.311 1050.36C861.172 1024.27 863.545 884.298 846.938 751.447C835.077 668.415 820.843 592.5 811.353 545.053C813.726 545.053 813.726 545.053 816.098 542.681C823.215 556.915 839.821 590.128 839.821 590.128C854.055 601.99 870.662 613.851 877.779 620.968C880.151 623.341 882.523 625.713 887.268 625.713H889.641C889.641 625.713 892.013 625.713 892.013 623.341L889.641 620.968C887.268 618.596 887.268 616.224 884.896 613.851L887.268 611.479C877.779 601.99 858.8 583.011 851.683 578.266L844.566 556.915L849.311 564.032H851.683C875.406 571.149 899.13 575.894 913.364 578.266C915.736 578.266 920.481 578.266 922.853 578.266C925.225 578.266 927.598 578.266 927.598 575.894C927.598 573.522 927.598 573.521 922.853 573.521C920.481 573.521 918.109 571.149 915.736 571.149V568.777C903.875 564.032 889.64 559.288 863.545 552.171L858.8 554.543C858.8 552.171 856.428 549.798 854.055 545.053C851.683 540.309 849.311 535.564 846.938 530.819C861.172 535.564 880.151 542.681 880.151 545.053C899.13 542.681 915.736 540.309 932.343 537.936C937.087 537.936 939.46 535.564 944.204 535.564C946.577 535.564 946.577 533.192 946.577 533.192H944.204C944.204 533.192 944.204 533.192 939.46 533.192C937.087 533.192 932.343 533.192 929.97 533.192V530.819C913.364 530.819 899.13 533.192 882.523 535.564L844.566 509.468C849.311 492.862 849.311 478.628 844.566 462.022C865.917 473.883 892.013 471.511 910.991 454.905C915.736 450.16 920.481 443.043 920.481 438.298C925.226 435.926 929.97 435.926 932.343 431.181C941.832 421.692 941.832 405.085 932.343 393.224C929.97 390.851 925.226 388.479 920.481 386.107C932.343 378.99 944.204 374.245 958.438 374.245C972.672 378.99 986.906 383.734 1001.14 393.224H1003.51H1008.26L1024.86 390.851Z" fill="#E3EAF6"/>
<path d="M616.808 1.77925C275.191 1.77925 0 276.971 0 616.215C0 957.832 275.191 1233.02 614.436 1233.02C956.052 1233.02 1231.24 957.832 1231.24 618.587V616.215C1231.24 276.971 956.053 1.77925 616.808 1.77925C616.808 -0.593085 616.808 -0.593085 616.808 1.77925ZM616.808 1138.13C327.383 1138.13 94.8936 905.64 94.8936 616.215C94.8936 326.79 327.383 94.3005 616.808 94.3005C906.233 94.3005 1138.72 326.79 1138.72 616.215C1136.35 905.64 903.861 1138.13 616.808 1138.13Z" fill="#E3EAF6"/>
</g>
</svg>
